<mxfile host="app.diagrams.net" modified="2023-04-24T13:22:51.701Z" agent="Mozilla/5.0 (Windows NT 10.0; Win64; x64) AppleWebKit/537.36 (KHTML, like Gecko) Chrome/112.0.0.0 Safari/537.36" version="21.1.8" etag="ZBPq0LS7VxdYBj6l_d6L" type="github">
  <diagram name="Page-1" id="6PNXNWsY1Sf34r8GFbYM">
    <mxGraphModel>
      <root>
        <mxCell id="0" />
        <mxCell id="1" parent="0" />
      </root>
    </mxGraphModel>
  </diagram>
</mxfile>
